<?xml version="1.0" encoding="UTF-8" standalone="no"?>
<svg
   xmlns:dc="http://purl.org/dc/elements/1.1/"
   xmlns:cc="http://creativecommons.org/ns#"
   xmlns:rdf="http://www.w3.org/1999/02/22-rdf-syntax-ns#"
   xmlns:svg="http://www.w3.org/2000/svg"
   xmlns="http://www.w3.org/2000/svg"
   xmlns:sodipodi="http://sodipodi.sourceforge.net/DTD/sodipodi-0.dtd"
   xmlns:inkscape="http://www.inkscape.org/namespaces/inkscape"
   width="250"
   height="250"
   viewBox="0 0 250 250"
   version="1.1"
   id="svg14"
   sodipodi:docname="simula-reg-logo.svg"
   inkscape:version="0.92.1 r15371">
  <metadata
     id="metadata18">
    <rdf:RDF>
      <cc:Work
         rdf:about="">
        <dc:format>image/svg+xml</dc:format>
        <dc:type
           rdf:resource="http://purl.org/dc/dcmitype/StillImage" />
        <dc:title>logo-SimulaReg-compuesto-black</dc:title>
      </cc:Work>
    </rdf:RDF>
  </metadata>
  <sodipodi:namedview
     pagecolor="#ffffff"
     bordercolor="#666666"
     borderopacity="1"
     objecttolerance="10"
     gridtolerance="10"
     guidetolerance="10"
     inkscape:pageopacity="0"
     inkscape:pageshadow="2"
     inkscape:window-width="1130"
     inkscape:window-height="725"
     id="namedview16"
     showgrid="false"
     inkscape:zoom="1"
     inkscape:cx="226.17889"
     inkscape:cy="35.005522"
     inkscape:window-x="3125"
     inkscape:window-y="334"
     inkscape:window-maximized="0"
     inkscape:current-layer="svg14" />
  <!-- Generator: Sketch 41 (35326) - http://www.bohemiancoding.com/sketch -->
  <title
     id="title2">logo-SimulaReg-compuesto-black</title>
  <desc
     id="desc4">Created with Sketch.</desc>
  <defs
     id="defs6" />
  <g
     id="g12"
     transform="translate(46.1,35.80039)"
     style="fill:none;fill-rule:evenodd;stroke:none;stroke-width:1">
    <g
       id="Logo-03-Copy"
       transform="translate(-1285,-2935)">
      <g
         id="logo-SimulaReg-compuesto-black"
         transform="translate(1285,2935)">
        <g
           id="Page-1"
           style="fill:#26292e">
          <path
             d="m 94.72291,77.5024 c -0.791,-6.176 -2.643999,-10.673 -2.822999,-11.095 -4.707001,-12.901 -18.863,-21.873 -24.735,-25.134 -0.246001,-0.139 -0.542,-0.16 -0.807,-0.065 -0.266001,0.097 -0.475001,0.305 -0.577,0.568 -3.173,8.284 -4.272001,17.485 -3.103,25.915 0.779999,5.62 2.997999,12.376 5.924999,18.073 2.567,4.986 6.905,11.531 12.998,14.372 0.651,0.304 1.318,0.56 1.976,0.764 0.296001,0.093 0.614,0.039 0.861,-0.14 0.251001,-0.182 0.399001,-0.467 0.404,-0.776 0.141001,-10.239 -1.95,-22.153 -6.858999,-34.841 6.548,10.869 9.457999,23.728 10.664999,33.794 0.051,0.404 0.345,0.738 0.743001,0.833 0.394999,0.093 0.807999,-0.068 1.036,-0.406 3.895,-5.836 5.381999,-13.392 4.295999,-21.862 z m 9.179,57.6349 c 0.271,0.312 0.67,0.477 1.082,0.447 0.924,-0.071 1.869,-0.205 2.806,-0.404 8.801,-1.871 16.426,-9.097 21.276,-14.828 5.533,-6.544 10.455,-14.686 13.165,-21.779 4.063,-10.637 5.396,-22.97 3.754,-34.724 -0.051,-0.372 -0.264,-0.705 -0.579,-0.912 -0.318,-0.207 -0.709,-0.266 -1.072,-0.16 -8.636,2.484 -29.794,9.922 -39.819,25.325 -0.358,0.495 -4.126,5.802 -7.019,13.616 -3.961,10.716 -4.302,21.018 -0.976999,29.797 0.191999,0.512 0.682999,0.848 1.229,0.844 0.546999,-0.004 1.030999,-0.351 1.217,-0.864 4.600999,-12.764 12.267999,-28.652 24.078999,-40.85 -10.223,15.062 -16.532,29.972 -19.43,43.361 -0.089,0.402 0.02,0.823 0.288,1.131 z m -13.3687,11.4868 c 0.323001,0.52 0.937,0.785 1.537001,0.661 0.600999,-0.123 1.060999,-0.605 1.153999,-1.212 1.598,-10.409 -1.176,-21.637 -8.024999,-32.472 -4.997,-7.902 -10.373,-12.844 -10.880001,-13.308 -14.593,-14.563 -39.55,-17.792 -49.607,-18.501 -0.422,-0.034 -0.838,0.123 -1.138,0.42 -0.301,0.303 -0.454,0.719 -0.424,1.141 0.940001,13.283 5.279,26.504 12.222001,37.232 4.625999,7.151 11.929,14.939 19.527,20.829 6.659,5.162 16.711999,11.31 26.811,11.31 1.073999,0 2.143,-0.069 3.17,-0.212 0.458999,-0.063 0.860999,-0.337 1.083,-0.74 0.226,-0.403 0.244,-0.888 0.054,-1.309 -6.303001,-14.019 -16.705,-28.91 -31.439001,-43.057 15.805001,10.636 27.929,26.284 35.955,39.218 z m 17.4357,-91.0701 c 4.174,3.443 9.445,5.338 14.84,5.338 1.627,0 3.266,-0.171 4.874,-0.507 11.601,-2.431 19.592,-13.497 18.193,-25.193 -0.68,-5.684 -3.219,-10.657 -5.613,-14.772 -2.888,-4.964 -10.922,-14.872 -14.242,-18.901 -0.794,-0.966 -1.969,-1.519 -3.222,-1.519 -1.273,0 -2.458,0.567 -3.251,1.555 -3.026,3.768 -13.129,16.519 -16.116,22.425 -1.756,3.469 -3.781999,8.134 -3.858999,13.457 -0.102,7.031 2.957999,13.635 8.395999,18.117 z m 0.051,-21.194 v -10e-4 c 0.942,-3.951 2.749,-7.803 5.686,-12.12 1.891,-2.781 9.168,-12.457 9.168,-12.457 0,0 11.077,14.319 13.905,21.78 2.187,5.77 1.505,11.002 -2.028,15.551 -2.818,3.631 -7.278,5.798 -11.93,5.798 -2.264,0 -4.441,-0.494 -6.468,-1.469 -6.555,-3.151 -9.981,-10.176 -8.333,-17.082 z m 15.0341,13.2529 c 0.035,0 0.069,0 0.104,-0.001 5.406,-0.099 9.972,-4.681 9.971,-10.005 -0.001,-2.433 -1.529,-4.179 -3.802,-4.341 -2.382,-0.158 -4.131,1.319 -4.475,3.788 -0.237,1.705 -0.606,2.072 -2.321,2.312 -2.461,0.344 -4.056,2.168 -3.878,4.437 0.178,2.256 1.981,3.81 4.401,3.81 z m 42.606,43.3349 c -0.028,-0.108 -0.062,-0.217 -0.099,-0.324 -0.025,-0.08 -0.059,-0.158 -0.068,-0.226 -0.455,-14.757 -4.69,-28.581 -12.588,-41.089 -0.351,-0.556 -1.148,-0.902 -2.066,-0.342 -1.068,0.65 -5.02,5.262 -4.013,6.975 8.696,14.793 11.849,30.861 9.372,47.757 -2.51,17.125 -10.244,31.675 -22.986,43.245 -17.304,15.709 -37.838,22.083 -61.032,18.936 -16.877999,-2.288 -31.301,-9.697 -42.869,-22.019 -18.429999,-19.636 -24.6559995,-42.459 -18.505,-67.837 6.374001,-26.293 23.161,-44.216 49.893,-53.27 7.253,-2.456 14.996,-3.557 23.665001,-3.363 4.217999,0.095 8.393999,0.528 12.411999,1.287 2.024,0.393 3.737,-2.868 4.114,-4.798 0.43,-2.191 -0.574,-3.205 -1.656999,-3.425 -11.241,-2.28 -22.412001,-2.243 -33.2,0.11 -26.554001,5.796 -46.075001,21.068 -58.0200005,45.391 -7.84499997,15.972 -9.943,33.346 -6.235,51.638 3.486,17.202 11.7800005,31.839 24.6520005,43.506 16.222999,14.704 34.771999,22.1 55.329,22.1 5.920999,0 12.010999,-0.613 18.256999,-1.844 19.297,-3.799 35.532,-13.913 48.254,-30.063 9.807,-12.451 15.509,-26.897 16.949,-42.936 0.109,-1.215 0.212,-2.43 0.317,-3.644 l 0.157,-1.832 0.005,-3.642 z"
             id="Combined-Shape"
             inkscape:connector-curvature="0" />
        </g>
      </g>
    </g>
  </g>
</svg>
